<svg width="144" height="39" viewBox="0 0 144 39" fill="none" xmlns="http://www.w3.org/2000/svg">
<path d="M21.944 13.2931L3.2862 3.07087C2.757 2.78337 2.2698 2.71392 1.875 2.83892L17.156 18.0611L21.944 13.2903" fill="url(#paint0_linear_56_2843)"/>
<path fill-rule="evenodd" clip-rule="evenodd" d="M21.9681 22.8583L28.3381 19.3694C29.6289 18.6583 29.6289 17.5028 28.3381 16.7944L21.9443 13.2944L17.1562 18.0639L21.9681 22.8583Z" fill="url(#paint1_linear_56_2843)"/>
<path d="M1.87501 2.83887C1.30521 3.01387 0.937012 3.58887 0.937012 4.44998L0.942612 31.7083C0.942612 32.5639 1.29821 33.1278 1.84981 33.3166L17.156 18.0639L1.87501 2.83887Z" fill="url(#paint2_linear_56_2843)"/>
<path d="M1.84961 33.3194C2.24721 33.4528 2.74561 33.3889 3.28601 33.0944L21.9648 22.8583L17.1558 18.0667L1.84961 33.3194Z" fill="url(#paint3_linear_56_2843)"/>
<path fill-rule="evenodd" clip-rule="evenodd" d="M44.361 1.44031C45.537 1.44031 46.3518 1.96531 46.881 2.50281L46.055 3.42364C45.6294 3.01392 45.1632 2.73197 44.375 2.73197C42.8742 2.73197 41.8662 3.88475 41.8662 5.76531C41.8662 7.67364 42.7706 8.82642 44.4646 8.82642C44.9308 8.82642 45.3956 8.69864 45.6686 8.4542V6.64864H44.0754V5.43475H47.0112V9.12086C46.4302 9.65836 45.4348 10.1181 44.284 10.1181C42.0328 10.1181 40.3262 8.58336 40.3262 5.80559C40.3262 3.06531 42.0846 1.44031 44.3582 1.44031M52.5734 6.26392C52.5734 5.2667 52.1492 4.6667 51.2826 4.6667C50.5322 4.6667 49.8854 5.21531 49.7566 6.26392H52.5734ZM51.2434 3.52781C52.9626 3.52781 53.8684 4.7542 53.8684 6.50697C53.8684 6.79031 53.8404 7.04447 53.804 7.19864H49.7692C49.8952 8.33753 50.6232 8.9792 51.6452 8.9792C52.1856 8.9792 52.6504 8.81253 53.1152 8.51809L53.6192 9.43892C53.013 9.83475 52.2514 10.1167 51.4492 10.1167C49.6894 10.1167 48.3202 8.90142 48.3202 6.82781C48.3216 4.77781 49.7566 3.52781 51.2434 3.52781ZM55.3174 4.84447H54.4144V3.74447L55.3972 3.68059L55.5792 1.96392H56.8196V3.68059H58.4352V4.84447H56.8196V7.83892C56.8196 8.58059 57.1024 8.93892 57.7114 8.93892C57.9312 8.93892 58.1902 8.87503 58.3694 8.80003L58.6298 9.88614C58.2798 10.0014 57.8402 10.1167 57.3362 10.1167C55.862 10.1167 55.3202 9.19448 55.3202 7.83892V4.84447H55.3174Z" fill="#E7E7E7"/>
<mask id="mask0_56_2843" style="mask-type:luminance" maskUnits="userSpaceOnUse" x="38" y="0" width="106" height="39">
<path d="M38.5034 0.902832H143.422V38.1251H38.5034V0.902832Z" fill="#E7E7E7"/>
</mask>
<g mask="url(#mask0_56_2843)">
<path fill-rule="evenodd" clip-rule="evenodd" d="M62.4208 3.68061H63.9076V9.96394H62.4208V3.68061ZM62.2528 1.74728C62.2528 1.24728 62.6406 0.902832 63.1698 0.902832C63.7018 0.902832 64.0868 1.25005 64.0868 1.74728C64.0868 2.23339 63.7004 2.58061 63.1684 2.58061C62.6364 2.58061 62.25 2.23339 62.25 1.74728H62.2528ZM66.03 4.8445H65.1242V3.7445L66.1084 3.68061L66.2904 1.96394H67.5308V3.68061H69.1464V4.8445H67.5308V7.83894C67.5308 8.58061 67.8136 8.93894 68.4226 8.93894C68.6438 8.93894 68.9014 8.87505 69.0834 8.80005L69.3424 9.88616C68.9924 10.0014 68.5528 10.1167 68.0488 10.1167C66.5746 10.1167 66.0328 9.1945 66.0328 7.83894V4.8445H66.03ZM75.7292 8.91394C76.6616 8.91394 77.23 8.08061 77.23 6.82783C77.23 5.56116 76.6616 4.73061 75.7292 4.73061C74.7982 4.73061 74.2452 5.56116 74.2452 6.82783C74.2452 8.082 74.7982 8.91394 75.7292 8.91394ZM75.7292 3.52505C77.3196 3.52505 78.756 4.72922 78.756 6.82783C78.756 8.91394 77.3196 10.1195 75.7292 10.1195C74.1514 10.1195 72.7192 8.91394 72.7192 6.82783C72.7192 4.73061 74.1514 3.52644 75.7292 3.52644M80.233 3.68061H81.4608L81.5644 4.52505H81.6148C82.1846 3.97505 82.8328 3.52505 83.698 3.52505C85.056 3.52505 85.6496 4.43478 85.6496 6.02228V9.96394H84.1628V6.21394C84.1628 5.17644 83.8688 4.7945 83.1688 4.7945C82.6116 4.7945 82.2504 5.06117 81.7184 5.57228V9.96394H80.2344V3.68061H80.233Z" fill="#E7E7E7"/>
</g>
<mask id="mask1_56_2843" style="mask-type:luminance" maskUnits="userSpaceOnUse" x="38" y="0" width="106" height="39">
<path d="M38.5034 0.902832H143.422V38.1251H38.5034V0.902832Z" fill="white"/>
</mask>
<g mask="url(#mask1_56_2843)">
<path fill-rule="evenodd" clip-rule="evenodd" d="M114.498 22.7529C113.443 22.7529 112.678 23.0445 112.206 23.6237C111.735 24.2015 111.492 25.1237 111.478 26.3876V26.7348C111.478 28.1709 111.721 29.1987 112.206 29.8209C112.689 30.4404 113.466 30.7515 114.537 30.7515C115.431 30.7515 116.133 30.3904 116.637 29.6751C117.146 28.9612 117.398 27.9723 117.398 26.714C117.398 25.439 117.146 24.4584 116.636 23.7765C116.132 23.0932 115.418 22.7515 114.497 22.7515M114.725 32.0473C114.05 32.0473 113.437 31.9251 112.88 31.6793C112.32 31.4311 111.837 31.0394 111.48 30.5445H111.364C111.441 31.1418 111.478 31.7084 111.478 32.2432V36.457H109.913V21.6251H111.187L111.403 23.0251H111.478C111.882 22.464 112.349 22.0626 112.887 21.8112C113.464 21.5544 114.092 21.4273 114.725 21.439C116.097 21.439 117.155 21.9015 117.903 22.8279C118.645 23.7557 119.017 25.0598 119.017 26.7348C119.017 28.4154 118.639 29.7209 117.883 30.6515C117.123 31.582 116.072 32.0473 114.725 32.0473ZM122.646 31.8612H121.078V17.3279H122.646V31.8612ZM128.115 30.7695C129.09 30.7695 129.858 30.5057 130.411 29.9779C130.968 29.4459 131.246 28.7043 131.246 27.7515V26.8307L129.678 26.8945C128.432 26.939 127.536 27.1307 126.988 27.4695C126.436 27.8084 126.162 28.339 126.162 29.0529C126.162 29.6126 126.33 30.039 126.675 30.3307C127.018 30.6251 127.497 30.7695 128.115 30.7695ZM131.651 31.8626L131.343 30.407H131.266C130.748 31.0501 130.234 31.4834 129.72 31.7084C129.209 31.9348 128.568 32.0487 127.802 32.0487C126.776 32.0487 125.973 31.7876 125.39 31.2654C124.808 30.7432 124.517 30.0015 124.517 29.0334C124.517 26.9668 126.185 25.8807 129.529 25.7834L131.283 25.7279V25.089C131.283 24.289 131.108 23.6945 130.758 23.3112C130.408 22.9293 129.848 22.7376 129.082 22.7376C128.221 22.7376 127.248 23.0015 126.16 23.5223L125.677 22.3348C126.187 22.0626 126.745 21.8487 127.352 21.6904C127.949 21.5367 128.563 21.4587 129.18 21.4584C130.412 21.4584 131.325 21.7279 131.92 22.2709C132.513 22.8126 132.812 23.6793 132.812 24.8751V31.8612H131.65L131.651 31.8626ZM133.723 21.6251H135.403L137.668 27.464C138.162 28.7973 138.473 29.7584 138.592 30.3501H138.666C138.75 30.0307 138.918 29.489 139.184 28.7182C139.443 27.9501 140.296 25.5834 141.742 21.6237H143.422L138.98 33.2807C138.538 34.4334 138.024 35.2501 137.434 35.7334C136.846 36.2168 136.124 36.4557 135.27 36.4557C134.791 36.4557 134.318 36.4001 133.853 36.2959V35.0529C134.199 35.1307 134.587 35.1668 135.015 35.1668C136.089 35.1668 136.856 34.5668 137.315 33.3751L137.895 31.9168L133.723 21.6209V21.6251ZM84.7986 28.014C85.297 27.5195 85.3404 26.839 85.3404 26.4515C85.3404 24.9098 84.4094 22.5112 82.6146 22.5112C82.0518 22.5112 81.4456 22.7918 81.0998 23.2195C80.7316 23.6682 80.6238 24.2473 80.6238 24.8029C80.6238 26.2376 81.4694 28.6168 83.3286 28.6168C83.8769 28.6036 84.4008 28.3888 84.7986 28.014ZM84.1728 32.0834C84.0006 32.0612 83.8928 32.0612 83.6772 32.0612C83.4812 32.0612 82.3122 32.1029 81.405 32.4084C80.929 32.5751 79.543 33.0918 79.543 34.6098C79.543 36.1279 81.0382 37.2209 83.351 37.2209C85.4286 37.2209 86.5318 36.2376 86.5318 34.9098C86.5318 33.8154 85.8178 33.239 84.1742 32.0834H84.1728ZM85.7086 22.5765C86.2084 22.982 87.2444 23.8404 87.2444 25.4654C87.2444 27.0515 86.3344 27.8015 85.4286 28.507C85.1486 28.782 84.821 29.0876 84.821 29.5584C84.821 30.0279 85.1472 30.2848 85.3852 30.4779L86.165 31.0751C87.117 31.8709 87.9808 32.5973 87.9808 34.0751C87.9808 36.089 86.0096 38.1237 82.2912 38.1237C79.1552 38.1237 77.6432 36.6432 77.6432 35.0598C77.6432 34.2876 78.0282 33.1987 79.3092 32.4459C80.6476 31.632 82.4662 31.5265 83.4392 31.4598C83.134 31.0765 82.7896 30.6682 82.7896 30.0084C82.7896 29.6404 82.8974 29.4251 83.0052 29.1682C82.7672 29.1904 82.5292 29.2098 82.3122 29.2098C80.0218 29.2098 78.724 27.5182 78.724 25.8487C78.724 24.8654 79.1776 23.7723 80.1072 22.9807C81.3392 21.9751 82.8092 21.8029 83.981 21.8029H88.4372L87.0512 22.5737H85.71L85.7086 22.5765ZM74.7886 30.0098C75.3066 29.3265 75.4368 28.4682 75.4368 27.6348C75.4368 25.7543 74.5338 22.1626 71.8528 22.1626C71.1416 22.1626 70.429 22.4404 69.911 22.8904C69.071 23.6404 68.917 24.5807 68.917 25.5015C68.917 27.6168 69.9754 31.1015 72.5892 31.1015C73.4292 31.1015 74.2972 30.6945 74.79 30.0112M72.0922 31.7445C68.6594 31.7445 66.824 29.0918 66.824 26.6959C66.824 23.8973 69.134 21.5015 72.417 21.5015C75.5908 21.5015 77.5788 23.9598 77.5788 26.5487C77.5788 29.0709 75.6132 31.7432 72.0908 31.7432M63.0846 30.0098C63.6026 29.3265 63.7314 28.4682 63.7314 27.6348C63.7314 25.7543 62.8242 22.1626 60.1474 22.1626C59.4334 22.1626 58.7194 22.4404 58.2042 22.8904C57.3586 23.6404 57.2102 24.5807 57.2102 25.5015C57.2102 27.6168 58.2672 31.1015 60.881 31.1015C61.7238 31.1015 62.5862 30.6945 63.0846 30.0112M60.3854 31.7445C56.9498 31.7445 55.113 29.0918 55.113 26.6959C55.113 23.8973 57.4258 21.5015 60.7088 21.5015C63.884 21.5015 65.8706 23.9598 65.8706 26.5487C65.8706 29.0709 63.9064 31.7432 60.3868 31.7432M53.4624 31.407L50.36 32.1154C49.0958 32.3098 47.966 32.4793 46.776 32.4793C40.784 32.4793 38.502 28.1182 38.502 24.7015C38.502 20.5307 41.736 16.6626 47.2744 16.6626C48.3966 16.6646 49.5135 16.8159 50.5952 17.1126C52.2248 17.5654 52.985 18.1237 53.461 18.4459L51.6592 20.1432L50.9004 20.3154L51.4436 19.4543C50.7044 18.7459 49.3576 17.4348 46.7956 17.4348C43.3656 17.4348 40.7826 20.0182 40.7826 23.7779C40.7826 27.8168 43.7324 31.6223 48.4658 31.6223C49.8574 31.6223 50.5728 31.3404 51.2238 31.0834V27.6251L47.9478 27.7959L49.6838 26.8682H54.287L53.7214 27.4098C53.5674 27.5376 53.5464 27.5793 53.5044 27.7529C53.482 27.9445 53.4596 28.5695 53.4596 28.7807V31.4057L53.4624 31.407Z" fill="white"/>
</g>
<mask id="mask2_56_2843" style="mask-type:luminance" maskUnits="userSpaceOnUse" x="38" y="0" width="106" height="39">
<path d="M38.5034 0.902832H143.422V38.1251H38.5034V0.902832Z" fill="white"/>
</mask>
<g mask="url(#mask2_56_2843)">
<path fill-rule="evenodd" clip-rule="evenodd" d="M92.5716 30.7876C91.8548 30.7223 91.7036 30.5959 91.7036 29.7542V17.5903L91.7176 17.4515C91.8044 16.6987 92.02 16.5709 92.6976 16.182H89.5896L87.96 16.9598H89.619V30.2265C89.619 30.657 89.535 30.7223 89.0338 31.3653H92.8768L93.6818 30.8973C93.3122 30.8501 92.9426 30.8306 92.573 30.7862M99.3798 24.6209C99.79 24.4737 100.004 24.3431 100.004 24.0473C100.004 23.1945 99.034 22.2112 97.8692 22.2112C97.0054 22.2112 95.3912 22.8737 95.3912 25.1792C95.3912 25.5403 95.4332 25.9251 95.457 26.3084L99.377 24.6195L99.3798 24.6209ZM101.41 30.9848C101.172 31.1098 100.934 31.2626 100.699 31.3667C99.9846 31.6903 99.251 31.7737 98.6028 31.7737C97.9168 31.7737 96.836 31.7292 95.737 30.9403C94.2054 29.8737 93.539 28.0376 93.539 26.4362C93.539 23.1265 96.2578 21.5056 98.4768 21.5056C99.2524 21.5056 100.05 21.7001 100.7 22.1028C101.775 22.807 102.055 23.7237 102.206 24.2167L97.1412 26.2445L95.4794 26.3737C96.0184 29.082 97.8734 30.6626 99.9216 30.6626C101.022 30.6626 101.82 30.2778 102.554 29.9167L101.411 30.9862L101.41 30.9848ZM103.489 21.6528V23.0612H103.315V21.6528H102.845V21.507H103.961V21.6528H103.489ZM105.428 23.0612V21.639H105.424L104.983 23.0612H104.847L104.404 21.6403H104.4V23.0626H104.241V21.507H104.511L104.911 22.7653H104.914L105.309 21.5084H105.58V23.064H105.426L105.428 23.0612Z" fill="white"/>
</g>
<defs>
<linearGradient id="paint0_linear_56_2843" x1="387.501" y1="-534.48" x2="1004.43" y2="1547.25" gradientUnits="userSpaceOnUse">
<stop stop-color="#19A3B4"/>
<stop offset="0.34817" stop-color="#5BC3AF"/>
<stop offset="0.92234" stop-color="#C9F7A6"/>
<stop offset="1" stop-color="#D7FEA5"/>
</linearGradient>
<linearGradient id="paint1_linear_56_2843" x1="-161.423" y1="-1080.07" x2="548.636" y2="1221.64" gradientUnits="userSpaceOnUse">
<stop stop-color="#FC227C"/>
<stop offset="1" stop-color="#FEEB7B"/>
</linearGradient>
<linearGradient id="paint2_linear_56_2843" x1="457.518" y1="-448.659" x2="1498.72" y2="2253.26" gradientUnits="userSpaceOnUse">
<stop stop-color="#0E4DA0"/>
<stop offset="1" stop-color="#6BFED4"/>
</linearGradient>
<linearGradient id="paint3_linear_56_2843" x1="2661.98" y1="270.312" x2="725.66" y2="2481.82" gradientUnits="userSpaceOnUse">
<stop stop-color="#FC472E"/>
<stop offset="0.00332" stop-color="#FC472E"/>
<stop offset="1" stop-color="#893CD8"/>
</linearGradient>
</defs>
</svg>
