<svg width="138" height="38" viewBox="0 0 138 38" fill="none" xmlns="http://www.w3.org/2000/svg">
<path fill-rule="evenodd" clip-rule="evenodd" d="M20.3739 7.75838C23.9355 7.75838 26.2119 11.1889 26.2119 11.1889C26.2119 11.1889 22.7399 13.0667 22.7399 17.1417C22.7399 21.9792 27.1037 23.3875 27.1037 23.3875C27.1037 23.3875 23.6597 31.5209 19.7901 31.5209C17.6145 31.5209 17.4689 30.275 14.5779 30.275C12.0663 30.275 11.2207 31.5195 9.3083 31.5195C5.6571 31.5195 0.941895 23.5889 0.941895 17.1375C0.941895 10.4389 5.71589 7.7556 8.70909 7.7556C11.3369 7.7556 12.4331 9.29727 14.5471 9.29727C16.3293 9.29727 17.7321 7.7556 20.3739 7.7556V7.75838ZM19.7607 0.925049C20.2829 4.21116 17.2911 8.27227 13.7127 8.14033C13.1877 3.96394 17.0447 1.15005 19.7579 0.929216L19.7607 0.925049Z" fill="white"/>
<mask id="mask0_2_2626" style="mask-type:luminance" maskUnits="userSpaceOnUse" x="37" y="1" width="101" height="37">
<path d="M37.7297 1.12646H137.942V37.5098H37.7297V1.12785V1.12646Z" fill="white"/>
</mask>
<g mask="url(#mask0_2_2626)">
<path fill-rule="evenodd" clip-rule="evenodd" d="M46.9613 25.6028L45.5473 21.2195C45.3975 20.775 45.1161 19.7195 44.7045 18.0598H44.6541C44.4861 18.7736 44.2229 19.8278 43.8589 21.2223L42.4687 25.607H46.9627L46.9613 25.6028ZM51.8515 32.6028H48.9955L47.4331 27.6723H41.9997L40.5087 32.6028H37.7297L43.1155 15.8153H46.4405L51.8515 32.6042V32.6028Z" fill="white"/>
</g>
<mask id="mask1_2_2626" style="mask-type:luminance" maskUnits="userSpaceOnUse" x="37" y="1" width="101" height="37">
<path d="M37.7297 1.12646H137.942V37.5098H37.7297" fill="white"/>
</mask>
<g mask="url(#mask1_2_2626)">
<path fill-rule="evenodd" clip-rule="evenodd" d="M62.9439 26.5001C62.9439 25.3223 62.6807 24.3501 62.1515 23.5862C61.5719 22.7904 60.7935 22.3917 59.8177 22.3917C59.1569 22.3917 58.5577 22.614 58.0187 23.0515C57.4796 23.4936 57.1078 24.1042 56.9645 24.7834C56.8805 25.1167 56.8385 25.3862 56.8385 25.6029V27.6223C56.8385 28.5029 57.1045 29.2473 57.6449 29.8542C58.1825 30.4598 58.8811 30.764 59.7407 30.764C60.7487 30.764 61.5355 30.3723 62.0983 29.5945C62.6611 28.8126 62.9425 27.7834 62.9425 26.5042M65.6725 26.407C65.6725 28.4654 65.1167 30.0917 64.0023 31.2876C63.0041 32.3487 61.7623 32.8806 60.2839 32.8806C58.6879 32.8806 57.5399 32.3084 56.8399 31.1626V37.5154H54.1659V24.482C54.1659 23.1862 54.1323 21.8598 54.0679 20.5001H56.4241L56.5739 22.4223H56.6243C57.5203 20.9751 58.8741 20.2515 60.6941 20.2515C62.1165 20.2515 63.3037 20.8167 64.2543 21.9459C65.2035 23.0779 65.6795 24.564 65.6795 26.407" fill="white"/>
</g>
<mask id="mask2_2_2626" style="mask-type:luminance" maskUnits="userSpaceOnUse" x="37" y="1" width="101" height="37">
<path d="M37.7297 1.12646H137.942V37.5098H37.7297" fill="white"/>
</mask>
<g mask="url(#mask2_2_2626)">
<path fill-rule="evenodd" clip-rule="evenodd" d="M76.8179 26.5001C76.8179 25.3223 76.5519 24.3501 76.0199 23.5862C75.4417 22.7904 74.6661 22.3917 73.6903 22.3917C73.0281 22.3917 72.4303 22.614 71.8899 23.0515C71.3508 23.4933 70.9794 24.1042 70.8371 24.7834C70.7531 25.1167 70.7111 25.3862 70.7111 25.6029V27.6223C70.7111 28.5029 70.9799 29.2473 71.5161 29.8542C72.0537 30.4584 72.7537 30.764 73.6161 30.764C74.6241 30.764 75.4123 30.3723 75.9723 29.5945C76.5323 28.8126 76.8165 27.7834 76.8165 26.5042M79.5465 26.407C79.5465 28.4654 78.9865 30.0917 77.8735 31.2876C76.8739 32.3487 75.6335 32.8806 74.1551 32.8806C72.5549 32.8806 71.4069 32.3084 70.7111 31.1626V37.5154H68.0287V24.482C68.0287 23.1862 67.9951 21.8598 67.9307 20.5001H70.2869L70.4367 22.4223H70.4871C71.3803 20.9751 72.7369 20.2515 74.5583 20.2515C75.9793 20.2515 77.1679 20.8167 78.1199 21.9459C79.0677 23.0779 79.5465 24.564 79.5465 26.407Z" fill="white"/>
</g>
<path fill-rule="evenodd" clip-rule="evenodd" d="M95.0598 27.8946C95.0598 29.3251 94.56 30.4862 93.5716 31.3834C92.4824 32.3598 90.9634 32.8501 89.0146 32.8501C87.2156 32.8501 85.7722 32.5001 84.683 31.8043L85.3032 29.5612C86.4792 30.2584 87.7728 30.6071 89.177 30.6071C90.1878 30.6071 90.9732 30.3807 91.5346 29.9237C92.0988 29.4654 92.3816 28.8571 92.3816 28.0946C92.3816 27.414 92.1478 26.8418 91.6858 26.3765C91.221 25.9126 90.4538 25.4793 89.3786 25.0821C86.447 23.9848 84.9826 22.3834 84.9826 20.2737C84.9826 18.8959 85.5006 17.7696 86.5324 16.8848C87.5656 16.0071 88.9362 15.5654 90.64 15.5654C92.166 15.5654 93.433 15.8321 94.441 16.3626L93.769 18.5571C92.8198 18.0404 91.7502 17.7834 90.5546 17.7834C89.6068 17.7834 88.8648 18.0168 88.3342 18.4821C87.889 18.8959 87.6622 19.4015 87.6622 20.0029C87.6622 20.6654 87.9198 21.2154 88.4322 21.6459C88.8802 22.0432 89.6922 22.4765 90.864 22.9404C92.306 23.5237 93.363 24.2043 94.042 24.9821C94.7238 25.7626 95.064 26.7348 95.064 27.8946M103.946 22.5196H100.992V28.3946C100.992 29.8918 101.512 30.6376 102.555 30.6376C103.036 30.6376 103.435 30.5959 103.745 30.5126L103.821 32.5543C103.295 32.7529 102.6 32.8529 101.739 32.8529C100.679 32.8529 99.8534 32.5279 99.257 31.8807C98.6606 31.2307 98.361 30.1446 98.361 28.6168V22.5098H96.6026V20.4959H98.3624V18.2793L100.994 17.4821V20.4959H103.948V22.5182L103.946 22.5196ZM114.468 26.5154C114.468 25.4071 114.23 24.4557 113.751 23.6598C113.188 22.6987 112.383 22.2182 111.343 22.2182C110.269 22.2182 109.445 22.6987 108.886 23.6598C108.405 24.4557 108.165 25.4237 108.165 26.5654C108.165 27.6765 108.403 28.6293 108.886 29.4237C109.466 30.3848 110.272 30.8654 111.322 30.8654C112.344 30.8654 113.146 30.3751 113.73 29.3987C114.22 28.5862 114.468 27.6265 114.468 26.5154ZM117.247 26.4543C117.247 28.3154 116.715 29.8432 115.657 31.0376C114.546 32.2668 113.075 32.8807 111.238 32.8807C109.466 32.8807 108.056 32.2904 107.005 31.114C105.957 29.9334 105.431 28.4473 105.431 26.6557C105.431 24.7807 105.974 23.2432 107.055 22.0487C108.14 20.8543 109.6 20.2543 111.437 20.2543C113.207 20.2543 114.629 20.8459 115.704 22.0223C116.733 23.1668 117.244 24.6432 117.244 26.4529M125.961 22.8668C125.682 22.8157 125.399 22.7906 125.115 22.7918C124.171 22.7918 123.443 23.1501 122.931 23.8668C122.483 24.4973 122.262 25.2946 122.262 26.2557V32.6098H119.582V24.314C119.582 22.9209 119.554 21.6473 119.504 20.5029H121.838L121.936 22.8196H122.01C122.294 22.0251 122.738 21.3834 123.35 20.9029C123.907 20.4831 124.587 20.2554 125.287 20.2543C125.532 20.2543 125.755 20.2709 125.954 20.3029L125.956 22.8696L125.961 22.8668ZM135.388 25.2834C135.408 24.4848 135.231 23.7973 134.87 23.214C134.404 22.4668 133.69 22.0932 132.734 22.0932C131.856 22.0932 131.143 22.4571 130.6 23.1904C130.155 23.7709 129.889 24.4682 129.808 25.2807L135.388 25.2834ZM137.945 25.9807C137.945 26.4626 137.912 26.8696 137.847 27.2029H129.808C129.836 28.3973 130.228 29.3112 130.973 29.9418C131.65 30.5029 132.527 30.7848 133.602 30.7848C134.792 30.7848 135.878 30.5973 136.855 30.2154L137.275 32.0807C136.134 32.5807 134.783 32.8307 133.232 32.8307C131.362 32.8307 129.893 32.2779 128.825 31.1751C127.761 30.0709 127.225 28.5862 127.225 26.7279C127.225 24.9043 127.72 23.3848 128.714 22.1723C129.756 20.8779 131.164 20.2307 132.933 20.2307C134.671 20.2307 135.987 20.8779 136.881 22.1723C137.588 23.1973 137.945 24.4682 137.945 25.9779V25.9807ZM43.2668 6.36678L42.571 4.214C42.4982 3.99178 42.3638 3.47789 42.1566 2.65844H42.1314C42.0474 3.01122 41.9242 3.5265 41.7394 4.214L41.0576 6.36678H43.2668ZM45.6678 9.80428H44.2678L43.4978 7.38066H40.8266L40.0958 9.80566H38.7266L41.3726 1.55566H43.0078L45.6678 9.80428ZM52.2898 3.85705L50.0428 9.80428H48.7618L46.5918 3.85705H48.0058L49.0194 7.00289C49.1902 7.53066 49.3358 8.03066 49.445 8.50705H49.4828C49.5808 8.07928 49.7264 7.5765 49.9084 7.00289L50.9066 3.85566H52.2856L52.2898 3.85705ZM56.8818 6.84316C55.4202 6.84316 54.688 7.19872 54.688 8.04178C54.688 8.66678 55.066 8.97233 55.591 8.97233C56.263 8.97233 56.8832 8.45844 56.8832 7.76122V6.84455L56.8818 6.84316ZM57.068 9.80566L56.97 9.12094H56.9322C56.5304 9.67233 55.9452 9.94039 55.2004 9.94039C54.1364 9.94039 53.3804 9.19455 53.3804 8.19039C53.3804 6.72094 54.6488 5.96261 56.844 5.96261V5.8515C56.844 5.06816 56.4296 4.6765 55.612 4.6765C55.0629 4.6667 54.5235 4.82055 54.0636 5.11816L53.7948 4.24872C54.345 3.90566 55.0268 3.73483 55.8332 3.73483C57.3816 3.73483 58.1628 4.55427 58.1628 6.19594V8.38483C58.1628 8.98761 58.188 9.45427 58.2468 9.80705H57.0638L57.068 9.80566Z" fill="white"/>
<mask id="mask3_2_2626" style="mask-type:luminance" maskUnits="userSpaceOnUse" x="37" y="1" width="101" height="37">
<path d="M37.7297 1.12646H137.942V37.5098H37.7297V1.12785V1.12646Z" fill="white"/>
</mask>
<g mask="url(#mask3_2_2626)">
<path fill-rule="evenodd" clip-rule="evenodd" d="M61.7845 9.80699H60.4685V3.85699H61.7845V9.80699ZM61.1013 2.87644C60.9969 2.87666 60.8935 2.85608 60.7972 2.8159C60.701 2.77573 60.6138 2.71677 60.541 2.64255C60.4681 2.56832 60.411 2.48033 60.3731 2.3838C60.3351 2.28727 60.3171 2.18417 60.3201 2.0806C60.3201 1.6306 60.6743 1.29866 61.1265 1.29866C61.5773 1.29866 61.9427 1.63199 61.9301 2.08338C61.9301 2.56116 61.5899 2.87921 61.1013 2.87921V2.87644ZM65.4413 9.80699H64.1253V1.12643H65.4413V9.80699ZM70.8593 6.8431C69.3935 6.8431 68.6613 7.19866 68.6613 8.04171C68.6613 8.66671 69.0393 8.97227 69.5643 8.97227C70.2321 8.97227 70.8551 8.45838 70.8551 7.76116V6.84449L70.8593 6.8431ZM71.0413 9.8056L70.9433 9.12088H70.9069C70.5037 9.67227 69.9185 9.94032 69.1737 9.94032C68.1139 9.94032 67.3565 9.19449 67.3565 8.19032C67.3565 6.72088 68.6249 5.96255 70.8215 5.96255V5.85144C70.8215 5.0681 70.4057 4.67644 69.5895 4.67644C69.0015 4.67644 68.4905 4.82366 68.0411 5.1181L67.7751 4.24727C68.3239 3.90699 69.0071 3.73338 69.8121 3.73338C71.3605 3.73338 72.1431 4.55282 72.1431 6.19727V8.38477C72.1431 8.98616 72.1669 9.45144 72.2271 9.8056H71.0413ZM77.2097 4.77366C76.4509 4.77366 75.7565 5.43477 75.7565 6.35282V7.39449C75.7565 8.21393 76.3795 8.88755 77.1845 8.88755C78.1729 8.88755 78.7595 8.07921 78.7595 6.79449C78.7595 5.59449 78.1477 4.77366 77.2083 4.77366M77.4743 9.94032C76.6343 9.94032 76.0113 9.58477 75.6081 8.88755H75.5829L75.5059 9.80421H74.3859C74.4195 9.32921 74.4321 8.79032 74.4321 8.20282V1.12366H75.7509V4.72366H75.7747C76.1639 4.06255 76.7967 3.73199 77.6647 3.73199C79.0927 3.73199 80.0923 4.95838 80.0923 6.74588C80.0923 8.5931 78.9821 9.94032 77.4701 9.94032M83.3641 9.80699H82.0481V1.12643H83.3641V9.80699ZM89.3253 6.20699C89.3253 5.29032 88.8633 4.64032 88.0205 4.64032C87.2617 4.64032 86.6681 5.30144 86.5785 6.20699H89.3253ZM90.5335 7.14866H86.5785C86.6065 8.27643 87.3485 8.91255 88.4447 8.91255C89.0327 8.91255 89.5675 8.81255 90.0407 8.6306L90.2465 9.54727C89.6865 9.7931 89.0285 9.91532 88.2585 9.91532C86.4063 9.91532 85.3087 8.74032 85.3087 6.91532C85.3087 5.0931 86.4315 3.72088 88.1129 3.72088C89.6207 3.72088 90.5769 4.84866 90.5769 6.55005C90.5797 6.77921 90.5671 6.98755 90.5307 7.14727L90.5335 7.14866ZM98.5695 4.70005C97.6175 4.70005 97.0057 5.5931 97.0057 6.84171C97.0057 8.06393 97.6315 8.95838 98.5597 8.95838C99.4837 8.95838 100.107 8.00282 100.107 6.81393C100.107 5.6056 99.4963 4.69866 98.5709 4.69866M98.5177 9.94032C96.7859 9.94032 95.6617 8.6431 95.6617 6.8806C95.6617 5.04449 96.8097 3.73338 98.6185 3.73338C100.322 3.73338 101.472 4.96949 101.472 6.78616C101.472 8.64727 100.289 9.9431 98.5177 9.9431M108.556 9.80838H107.24V6.39171C107.24 5.34032 106.837 4.81255 106.043 4.81255C105.263 4.81255 104.724 5.48616 104.724 6.27088V9.80838H103.408V5.55838C103.408 5.03338 103.394 4.46949 103.359 3.85838H104.518L104.58 4.77505H104.616C104.966 4.13616 105.69 3.73338 106.492 3.73338C107.738 3.73338 108.554 4.68755 108.554 6.24171V9.8056L108.556 9.80838ZM117.173 4.85005H115.724V7.73894C115.724 8.47505 115.979 8.84171 116.49 8.84171C116.722 8.84171 116.918 8.81671 117.078 8.7806L117.113 9.78477C116.856 9.88199 116.513 9.93199 116.091 9.93199C115.05 9.93199 114.432 9.35699 114.432 7.84866V4.84866H113.568V3.85699H114.432V2.76671L115.724 2.37366V3.85699H117.173V4.84727V4.85005ZM124.149 9.80838H122.83V6.41949C122.83 5.35282 122.427 4.81394 121.635 4.81394C120.951 4.81394 120.319 5.27921 120.319 6.22227V9.81116H119V1.12643H120.319V4.70005H120.347C120.758 4.05144 121.355 3.73338 122.125 3.73338C123.382 3.73338 124.149 4.71532 124.149 6.26949V9.80838ZM129.672 6.21116C129.672 5.29449 129.21 4.64171 128.367 4.64171C127.611 4.64171 127.016 5.30421 126.929 6.21116H129.673H129.672ZM130.88 7.15143H126.927C126.952 8.27921 127.694 8.91532 128.791 8.91532C129.379 8.91532 129.914 8.81532 130.387 8.63338L130.595 9.55005C130.035 9.79588 129.377 9.9181 128.607 9.9181C126.752 9.9181 125.655 8.7431 125.655 6.9181C125.655 5.09588 126.775 3.72366 128.46 3.72366C129.972 3.72366 130.924 4.85144 130.924 6.55282C130.929 6.78199 130.917 6.99032 130.882 7.15005L130.88 7.15143Z" fill="white"/>
</g>
</svg>
