<svg width="168" height="50" viewBox="0 0 168 50" fill="none" xmlns="http://www.w3.org/2000/svg">
<path fill-rule="evenodd" clip-rule="evenodd" d="M35.3739 14.7584C38.9355 14.7584 41.2119 18.1889 41.2119 18.1889C41.2119 18.1889 37.7399 20.0667 37.7399 24.1417C37.7399 28.9792 42.1037 30.3875 42.1037 30.3875C42.1037 30.3875 38.6597 38.5209 34.7901 38.5209C32.6145 38.5209 32.4689 37.275 29.5779 37.275C27.0663 37.275 26.2207 38.5195 24.3083 38.5195C20.6571 38.5195 15.9419 30.5889 15.9419 24.1375C15.9419 17.4389 20.7159 14.7556 23.7091 14.7556C26.3369 14.7556 27.4331 16.2973 29.5471 16.2973C31.3293 16.2973 32.7321 14.7556 35.3739 14.7556V14.7584ZM34.7607 7.92505C35.2829 11.2112 32.2911 15.2723 28.7127 15.1403C28.1877 10.9639 32.0447 8.15005 34.7579 7.92922L34.7607 7.92505Z" fill="white"/>
<mask id="mask0_2_2625" style="mask-type:luminance" maskUnits="userSpaceOnUse" x="52" y="8" width="101" height="37">
<path d="M52.7297 8.12646H152.942V44.5098H52.7297V8.12785V8.12646Z" fill="white"/>
</mask>
<g mask="url(#mask0_2_2625)">
<path fill-rule="evenodd" clip-rule="evenodd" d="M61.9613 32.6028L60.5473 28.2195C60.3975 27.775 60.1161 26.7195 59.7045 25.0598H59.6541C59.4861 25.7736 59.2229 26.8278 58.8589 28.2223L57.4687 32.607H61.9627L61.9613 32.6028ZM66.8515 39.6028H63.9955L62.4331 34.6723H56.9997L55.5087 39.6028H52.7297L58.1155 22.8153H61.4405L66.8515 39.6042V39.6028Z" fill="white"/>
</g>
<mask id="mask1_2_2625" style="mask-type:luminance" maskUnits="userSpaceOnUse" x="52" y="8" width="101" height="37">
<path d="M52.7297 8.12646H152.942V44.5098H52.7297" fill="white"/>
</mask>
<g mask="url(#mask1_2_2625)">
<path fill-rule="evenodd" clip-rule="evenodd" d="M77.9439 33.5001C77.9439 32.3223 77.6807 31.3501 77.1515 30.5862C76.5719 29.7904 75.7935 29.3917 74.8177 29.3917C74.1569 29.3917 73.5577 29.614 73.0187 30.0515C72.4796 30.4936 72.1078 31.1042 71.9645 31.7834C71.8805 32.1167 71.8385 32.3862 71.8385 32.6029V34.6223C71.8385 35.5029 72.1045 36.2473 72.6449 36.8542C73.1825 37.4598 73.8811 37.764 74.7407 37.764C75.7487 37.764 76.5355 37.3723 77.0983 36.5945C77.6611 35.8126 77.9425 34.7834 77.9425 33.5042M80.6725 33.407C80.6725 35.4654 80.1167 37.0917 79.0023 38.2876C78.0041 39.3487 76.7623 39.8806 75.2839 39.8806C73.6879 39.8806 72.5399 39.3084 71.8399 38.1626V44.5154H69.1659V31.482C69.1659 30.1862 69.1323 28.8598 69.0679 27.5001H71.4241L71.5739 29.4223H71.6243C72.5203 27.9751 73.8741 27.2515 75.6941 27.2515C77.1165 27.2515 78.3037 27.8167 79.2543 28.9459C80.2035 30.0779 80.6795 31.564 80.6795 33.407" fill="white"/>
</g>
<mask id="mask2_2_2625" style="mask-type:luminance" maskUnits="userSpaceOnUse" x="52" y="8" width="101" height="37">
<path d="M52.7297 8.12646H152.942V44.5098H52.7297" fill="white"/>
</mask>
<g mask="url(#mask2_2_2625)">
<path fill-rule="evenodd" clip-rule="evenodd" d="M91.8179 33.5001C91.8179 32.3223 91.5519 31.3501 91.0199 30.5862C90.4417 29.7904 89.6661 29.3917 88.6903 29.3917C88.0281 29.3917 87.4303 29.614 86.8899 30.0515C86.3508 30.4933 85.9794 31.1042 85.8371 31.7834C85.7531 32.1167 85.7111 32.3862 85.7111 32.6029V34.6223C85.7111 35.5029 85.9799 36.2473 86.5161 36.8542C87.0537 37.4584 87.7537 37.764 88.6161 37.764C89.6241 37.764 90.4123 37.3723 90.9723 36.5945C91.5323 35.8126 91.8165 34.7834 91.8165 33.5042M94.5465 33.407C94.5465 35.4654 93.9865 37.0917 92.8735 38.2876C91.8739 39.3487 90.6335 39.8806 89.1551 39.8806C87.5549 39.8806 86.4069 39.3084 85.7111 38.1626V44.5154H83.0287V31.482C83.0287 30.1862 82.9951 28.8598 82.9307 27.5001H85.2869L85.4367 29.4223H85.4871C86.3803 27.9751 87.7369 27.2515 89.5583 27.2515C90.9793 27.2515 92.1679 27.8167 93.1199 28.9459C94.0677 30.0779 94.5465 31.564 94.5465 33.407Z" fill="white"/>
</g>
<path fill-rule="evenodd" clip-rule="evenodd" d="M110.06 34.8946C110.06 36.3251 109.56 37.4862 108.572 38.3834C107.482 39.3598 105.963 39.8501 104.015 39.8501C102.216 39.8501 100.772 39.5001 99.683 38.8043L100.303 36.5612C101.479 37.2584 102.773 37.6071 104.177 37.6071C105.188 37.6071 105.973 37.3807 106.535 36.9237C107.099 36.4654 107.382 35.8571 107.382 35.0946C107.382 34.414 107.148 33.8418 106.686 33.3765C106.221 32.9126 105.454 32.4793 104.379 32.0821C101.447 30.9848 99.9826 29.3834 99.9826 27.2737C99.9826 25.8959 100.501 24.7696 101.532 23.8848C102.566 23.0071 103.936 22.5654 105.64 22.5654C107.166 22.5654 108.433 22.8321 109.441 23.3626L108.769 25.5571C107.82 25.0404 106.75 24.7834 105.555 24.7834C104.607 24.7834 103.865 25.0168 103.334 25.4821C102.889 25.8959 102.662 26.4015 102.662 27.0029C102.662 27.6654 102.92 28.2154 103.432 28.6459C103.88 29.0432 104.692 29.4765 105.864 29.9404C107.306 30.5237 108.363 31.2043 109.042 31.9821C109.724 32.7626 110.064 33.7348 110.064 34.8946M118.946 29.5196H115.992V35.3946C115.992 36.8918 116.512 37.6376 117.555 37.6376C118.036 37.6376 118.435 37.5959 118.745 37.5126L118.821 39.5543C118.295 39.7529 117.6 39.8529 116.739 39.8529C115.679 39.8529 114.853 39.5279 114.257 38.8807C113.661 38.2307 113.361 37.1446 113.361 35.6168V29.5098H111.603V27.4959H113.362V25.2793L115.994 24.4821V27.4959H118.948V29.5182L118.946 29.5196ZM129.468 33.5154C129.468 32.4071 129.23 31.4557 128.751 30.6598C128.188 29.6987 127.383 29.2182 126.343 29.2182C125.269 29.2182 124.445 29.6987 123.886 30.6598C123.405 31.4557 123.165 32.4237 123.165 33.5654C123.165 34.6765 123.403 35.6293 123.886 36.4237C124.466 37.3848 125.272 37.8654 126.322 37.8654C127.344 37.8654 128.146 37.3751 128.73 36.3987C129.22 35.5862 129.468 34.6265 129.468 33.5154ZM132.247 33.4543C132.247 35.3154 131.715 36.8432 130.657 38.0376C129.546 39.2668 128.075 39.8807 126.238 39.8807C124.466 39.8807 123.056 39.2904 122.005 38.114C120.957 36.9334 120.431 35.4473 120.431 33.6557C120.431 31.7807 120.974 30.2432 122.055 29.0487C123.14 27.8543 124.6 27.2543 126.437 27.2543C128.207 27.2543 129.629 27.8459 130.704 29.0223C131.733 30.1668 132.244 31.6432 132.244 33.4529M140.961 29.8668C140.682 29.8157 140.399 29.7906 140.115 29.7918C139.171 29.7918 138.443 30.1501 137.931 30.8668C137.483 31.4973 137.262 32.2946 137.262 33.2557V39.6098H134.582V31.314C134.582 29.9209 134.554 28.6473 134.504 27.5029H136.838L136.936 29.8196H137.01C137.294 29.0251 137.738 28.3834 138.35 27.9029C138.907 27.4831 139.587 27.2554 140.287 27.2543C140.532 27.2543 140.755 27.2709 140.954 27.3029L140.956 29.8696L140.961 29.8668ZM150.388 32.2834C150.408 31.4848 150.231 30.7973 149.87 30.214C149.404 29.4668 148.69 29.0932 147.734 29.0932C146.856 29.0932 146.143 29.4571 145.6 30.1904C145.155 30.7709 144.889 31.4682 144.808 32.2807L150.388 32.2834ZM152.945 32.9807C152.945 33.4626 152.912 33.8696 152.847 34.2029H144.808C144.836 35.3973 145.228 36.3112 145.973 36.9418C146.65 37.5029 147.527 37.7848 148.602 37.7848C149.792 37.7848 150.878 37.5973 151.855 37.2154L152.275 39.0807C151.134 39.5807 149.783 39.8307 148.232 39.8307C146.362 39.8307 144.893 39.2779 143.825 38.1751C142.761 37.0709 142.225 35.5862 142.225 33.7279C142.225 31.9043 142.72 30.3848 143.714 29.1723C144.756 27.8779 146.164 27.2307 147.933 27.2307C149.671 27.2307 150.987 27.8779 151.881 29.1723C152.588 30.1973 152.945 31.4682 152.945 32.9779V32.9807ZM58.2668 13.3668L57.571 11.214C57.4982 10.9918 57.3638 10.4779 57.1566 9.65844H57.1314C57.0474 10.0112 56.9242 10.5265 56.7394 11.214L56.0576 13.3668H58.2668ZM60.6678 16.8043H59.2678L58.4978 14.3807H55.8266L55.0958 16.8057H53.7266L56.3726 8.55566H58.0078L60.6678 16.8043ZM67.2898 10.8571L65.0428 16.8043H63.7618L61.5918 10.8571H63.0058L64.0194 14.0029C64.1902 14.5307 64.3358 15.0307 64.445 15.5071H64.4828C64.5808 15.0793 64.7264 14.5765 64.9084 14.0029L65.9066 10.8557H67.2856L67.2898 10.8571ZM71.8818 13.8432C70.4202 13.8432 69.688 14.1987 69.688 15.0418C69.688 15.6668 70.066 15.9723 70.591 15.9723C71.263 15.9723 71.8832 15.4584 71.8832 14.7612V13.8446L71.8818 13.8432ZM72.068 16.8057L71.97 16.1209H71.9322C71.5304 16.6723 70.9452 16.9404 70.2004 16.9404C69.1364 16.9404 68.3804 16.1946 68.3804 15.1904C68.3804 13.7209 69.6488 12.9626 71.844 12.9626V12.8515C71.844 12.0682 71.4296 11.6765 70.612 11.6765C70.0629 11.6667 69.5235 11.8206 69.0636 12.1182L68.7948 11.2487C69.345 10.9057 70.0268 10.7348 70.8332 10.7348C72.3816 10.7348 73.1628 11.5543 73.1628 13.1959V15.3848C73.1628 15.9876 73.188 16.4543 73.2468 16.8071H72.0638L72.068 16.8057Z" fill="white"/>
<mask id="mask3_2_2625" style="mask-type:luminance" maskUnits="userSpaceOnUse" x="52" y="8" width="101" height="37">
<path d="M52.7297 8.12646H152.942V44.5098H52.7297V8.12785V8.12646Z" fill="white"/>
</mask>
<g mask="url(#mask3_2_2625)">
<path fill-rule="evenodd" clip-rule="evenodd" d="M76.7845 16.807H75.4685V10.857H76.7845V16.807ZM76.1013 9.87644C75.9969 9.87666 75.8935 9.85608 75.7972 9.8159C75.701 9.77573 75.6138 9.71677 75.541 9.64255C75.4681 9.56832 75.411 9.48033 75.3731 9.3838C75.3351 9.28727 75.3171 9.18417 75.3201 9.0806C75.3201 8.6306 75.6743 8.29866 76.1265 8.29866C76.5773 8.29866 76.9427 8.63199 76.9301 9.08338C76.9301 9.56116 76.5899 9.87921 76.1013 9.87921V9.87644ZM80.4413 16.807H79.1253V8.12643H80.4413V16.807ZM85.8593 13.8431C84.3935 13.8431 83.6613 14.1987 83.6613 15.0417C83.6613 15.6667 84.0393 15.9723 84.5643 15.9723C85.2321 15.9723 85.8551 15.4584 85.8551 14.7612V13.8445L85.8593 13.8431ZM86.0413 16.8056L85.9433 16.1209H85.9069C85.5037 16.6723 84.9185 16.9403 84.1737 16.9403C83.1139 16.9403 82.3565 16.1945 82.3565 15.1903C82.3565 13.7209 83.6249 12.9625 85.8215 12.9625V12.8514C85.8215 12.0681 85.4057 11.6764 84.5895 11.6764C84.0015 11.6764 83.4905 11.8237 83.0411 12.1181L82.7751 11.2473C83.3239 10.907 84.0071 10.7334 84.8121 10.7334C86.3605 10.7334 87.1431 11.5528 87.1431 13.1973V15.3848C87.1431 15.9862 87.1669 16.4514 87.2271 16.8056H86.0413ZM92.2097 11.7737C91.4509 11.7737 90.7565 12.4348 90.7565 13.3528V14.3945C90.7565 15.2139 91.3795 15.8875 92.1845 15.8875C93.1729 15.8875 93.7595 15.0792 93.7595 13.7945C93.7595 12.5945 93.1477 11.7737 92.2083 11.7737M92.4743 16.9403C91.6343 16.9403 91.0113 16.5848 90.6081 15.8875H90.5829L90.5059 16.8042H89.3859C89.4195 16.3292 89.4321 15.7903 89.4321 15.2028V8.12366H90.7509V11.7237H90.7747C91.1639 11.0625 91.7967 10.732 92.6647 10.732C94.0927 10.732 95.0923 11.9584 95.0923 13.7459C95.0923 15.5931 93.9821 16.9403 92.4701 16.9403M98.3641 16.807H97.0481V8.12643H98.3641V16.807ZM104.325 13.207C104.325 12.2903 103.863 11.6403 103.021 11.6403C102.262 11.6403 101.668 12.3014 101.579 13.207H104.325ZM105.534 14.1487H101.579C101.607 15.2764 102.349 15.9125 103.445 15.9125C104.033 15.9125 104.568 15.8125 105.041 15.6306L105.247 16.5473C104.687 16.7931 104.029 16.9153 103.259 16.9153C101.406 16.9153 100.309 15.7403 100.309 13.9153C100.309 12.0931 101.432 10.7209 103.113 10.7209C104.621 10.7209 105.577 11.8487 105.577 13.55C105.58 13.7792 105.567 13.9875 105.531 14.1473L105.534 14.1487ZM113.57 11.7C112.618 11.7 112.006 12.5931 112.006 13.8417C112.006 15.0639 112.632 15.9584 113.56 15.9584C114.484 15.9584 115.107 15.0028 115.107 13.8139C115.107 12.6056 114.496 11.6987 113.571 11.6987M113.518 16.9403C111.786 16.9403 110.662 15.6431 110.662 13.8806C110.662 12.0445 111.81 10.7334 113.619 10.7334C115.322 10.7334 116.472 11.9695 116.472 13.7862C116.472 15.6473 115.289 16.9431 113.518 16.9431M123.556 16.8084H122.24V13.3917C122.24 12.3403 121.837 11.8125 121.043 11.8125C120.263 11.8125 119.724 12.4862 119.724 13.2709V16.8084H118.408V12.5584C118.408 12.0334 118.394 11.4695 118.359 10.8584H119.518L119.58 11.775H119.616C119.966 11.1362 120.69 10.7334 121.492 10.7334C122.738 10.7334 123.554 11.6875 123.554 13.2417V16.8056L123.556 16.8084ZM132.173 11.85H130.724V14.7389C130.724 15.475 130.979 15.8417 131.49 15.8417C131.722 15.8417 131.918 15.8167 132.078 15.7806L132.113 16.7848C131.856 16.882 131.513 16.932 131.091 16.932C130.05 16.932 129.432 16.357 129.432 14.8487V11.8487H128.568V10.857H129.432V9.76671L130.724 9.37366V10.857H132.173V11.8473V11.85ZM139.149 16.8084H137.83V13.4195C137.83 12.3528 137.427 11.8139 136.635 11.8139C135.951 11.8139 135.319 12.2792 135.319 13.2223V16.8112H134V8.12643H135.319V11.7H135.347C135.758 11.0514 136.355 10.7334 137.125 10.7334C138.382 10.7334 139.149 11.7153 139.149 13.2695V16.8084ZM144.672 13.2112C144.672 12.2945 144.21 11.6417 143.367 11.6417C142.611 11.6417 142.016 12.3042 141.929 13.2112H144.673H144.672ZM145.88 14.1514H141.927C141.952 15.2792 142.694 15.9153 143.791 15.9153C144.379 15.9153 144.914 15.8153 145.387 15.6334L145.595 16.55C145.035 16.7959 144.377 16.9181 143.607 16.9181C141.752 16.9181 140.655 15.7431 140.655 13.9181C140.655 12.0959 141.775 10.7237 143.46 10.7237C144.972 10.7237 145.924 11.8514 145.924 13.5528C145.929 13.782 145.917 13.9903 145.882 14.15L145.88 14.1514Z" fill="white"/>
</g>
</svg>
