<?xml version="1.0" ?><svg xmlns="http://www.w3.org/2000/svg" xmlns:xlink="http://www.w3.org/1999/xlink" version="1.1" viewBox="0 0 444.364 510" style="enable-background:new 0 0 444.364 510;" xml:space="preserve"><g id="_x32_1_x2C__Clematis_x2C__farming_and_gardening_x2C__botanical_x2C__tropical_x2C__blossom_x2C__flowers_x2C__nature_x2C__spring"><g><g><g><path style="fill:#283954;" d="M188.022,295.646c3.113-4.563,1.939-10.784-2.623-13.896c-4.561-3.111-10.784-1.939-13.897,2.623      c-16.268,23.84-25.76,52.217-26.851,81.822c-30.221,15.819-64.768,19.674-97.911,10.797l-24.49-6.563l6.562-24.49      C45.63,283.182,104.88,240.837,169.9,245.741c5.517,0.435,10.31-3.714,10.724-9.22c0.415-5.508-3.713-10.309-9.22-10.724      c-30.079-2.264-59.114,4.277-84.319,17.635c-28.8-18.265-49.401-46.246-58.274-79.37l-6.562-24.491l24.491-6.563      c63.211-16.941,129.239,13.705,157.319,72.086c2.394,4.978,8.371,7.068,13.347,4.677c4.977-2.394,7.07-8.369,4.677-13.347      c-13.075-27.183-33.259-49.059-57.432-64.209c1.422-34.069,15.354-65.898,39.602-90.144l17.929-17.929      c17.949,17.995,18.506,18.396,21.797,21.955c3.748,4.054,10.076,4.304,14.131,0.555c4.056-3.749,4.304-10.075,0.555-14.131      c-3.845-4.16-4.262-4.388-29.411-29.593c-3.906-3.904-10.236-3.904-14.143,0l-25,25c-25.57,25.57-41.148,58.489-44.769,93.998      c-31.725-14.158-68.198-17.771-103.778-8.236l-34.149,9.15c-5.335,1.43-8.501,6.912-7.071,12.247l9.149,34.15      c9.357,34.931,30.078,64.882,59.025,85.772c-28.123,20.394-49.489,50.171-59.025,85.751l-9.149,34.15      c-1.43,5.335,1.736,10.817,7.071,12.247l34.15,9.15c34.756,9.311,71.058,6.471,103.812-8.239      c1.626,15.721,5.608,31.164,11.873,45.682c1.632,3.779,5.316,6.04,9.187,6.04c7.133,0,12.037-7.338,9.177-13.966      C157.35,383.509,162.105,333.627,188.022,295.646z"/><path style="fill:#283954;" d="M434.872,340.761c-9.357-34.931-30.078-64.882-59.024-85.772      c28.123-20.395,49.489-50.174,59.024-85.751l9.149-34.15c1.43-5.335-1.736-10.817-7.071-12.247l-34.15-9.15      c-34.918-9.354-71.195-6.392-103.738,8.204c-1.941-18.65-7.26-37.084-16.032-54.362c-2.5-4.924-8.516-6.888-13.444-4.39      c-4.924,2.501-6.89,8.52-4.39,13.444c21.998,43.328,19.483,96.247-8.853,137.767c-3.113,4.562-1.939,10.783,2.623,13.896      c4.57,3.118,10.789,1.931,13.896-2.623c16.817-24.641,25.857-53.074,26.923-81.859c30.203-15.787,64.723-19.628,97.84-10.759      l24.49,6.563l-6.561,24.49c-16.945,63.228-76.532,105.058-141.089,100.197c-5.518-0.413-10.309,3.714-10.724,9.22      c-0.415,5.508,3.713,10.309,9.22,10.724c3.932,0.296,7.84,0.442,11.729,0.442c25.868-0.001,50.674-6.465,72.587-18.079      c28.801,18.265,49.403,46.247,58.276,79.372l6.561,24.491l-24.491,6.563c-63.009,16.893-129.151-13.523-157.319-72.086      c-2.395-4.977-8.372-7.068-13.347-4.677c-4.977,2.394-7.07,8.369-4.677,13.347c13.075,27.183,33.26,49.054,57.432,64.204      c-1.421,34.071-15.353,65.902-39.602,90.149l-17.929,17.929c-15.634-15.849-20.344-19.763-27.277-28.272      c-3.487-4.282-9.788-4.927-14.068-1.438c-4.282,3.488-4.926,9.787-1.438,14.068c3.332,4.091,6.936,8.079,10.712,11.855l25,25      c3.907,3.905,10.236,3.904,14.143,0l25-25c25.569-25.569,41.147-58.486,44.768-93.993      c31.777,14.181,68.239,17.755,103.779,8.231l34.149-9.15c5.335-1.43,8.501-6.912,7.071-12.247L434.872,340.761z"/></g><g><path style="fill:#DA5461;" d="M326.513,303.689l-43.722-25.248c5.857-15.09,5.857-31.792,0-46.882l43.722-25.248      c4.782-2.762,6.421-8.878,3.659-13.661c-2.763-4.783-8.877-6.422-13.661-3.659l-43.741,25.259      c-9.94-12.315-24.265-20.947-40.588-23.479v-50.471c0-5.523-4.477-10-10-10c-5.522,0-10,4.477-10,10v50.471      c-16.323,2.531-30.648,11.164-40.588,23.479l-43.741-25.259c-4.784-2.762-10.899-1.121-13.661,3.659      c-2.762,4.783-1.123,10.899,3.659,13.661l43.722,25.248c-5.857,15.089-5.857,31.792,0,46.882l-43.722,25.248      c-4.782,2.762-6.421,8.878-3.659,13.661c2.765,4.789,8.882,6.417,13.661,3.659l43.741-25.259      c9.94,12.315,24.265,20.947,40.588,23.479V369.7c0,5.522,4.478,10,10,10c5.523,0,10-4.478,10-10v-50.471      c16.323-2.531,30.648-11.164,40.588-23.479l43.741,25.259c4.783,2.76,10.898,1.125,13.661-3.659      C332.934,312.567,331.296,306.451,326.513,303.689z M222.182,300c-24.813,0-45-20.187-45-45s20.187-45,45-45s45,20.187,45,45      S246.996,300,222.182,300z"/></g></g></g></g><g id="Layer_1"/></svg>