<?xml version="1.0" ?><svg xmlns="http://www.w3.org/2000/svg" xmlns:xlink="http://www.w3.org/1999/xlink" version="1.1" viewBox="0 0 360 510" style="enable-background:new 0 0 360 510;" xml:space="preserve"><g id="_x30_5_x2C__Tulip_x2C__tulips_x2C__flower_x2C__botanical_x2C__garden_x2C__blossom_x2C__nature_x2C__petals"><g><g><path style="fill:#DA5461;" d="M108.795,81.149c4.102,3.697,10.425,3.37,14.124-0.733C146.339,54.429,169.17,33.149,180,23.371     c10.831,9.778,33.662,31.059,57.083,57.044c3.691,4.097,10.015,4.435,14.123,0.733c4.102-3.698,4.431-10.021,0.732-14.123     C218.843,30.304,187.824,3.539,186.52,2.418c-3.748-3.224-9.291-3.224-13.039,0c-1.305,1.122-32.323,27.887-65.419,64.608     C104.364,71.128,104.693,77.451,108.795,81.149z"/><g><path style="fill:#283954;" d="M305,112.68c5.522,0,10-4.477,10-10V60c0-5.523-4.478-10-10-10      c-50.648,0-97.321,25.394-125,67.062C152.331,75.409,105.687,50,55,50c-5.522,0-10,4.477-10,10v85      c0,30.809,10.646,60.935,29.976,84.83c3.478,4.3,9.776,4.954,14.063,1.485c4.294-3.473,4.959-9.77,1.485-14.064      C74.064,196.904,65,171.245,65,145V70.377c44.516,3.367,83.956,29.109,105,68.99c0,8.363,0,114.684,0,120.184      c-18.583-1.607-36.451-7.664-52.176-17.789c-4.645-2.99-10.832-1.648-13.822,2.994c-2.989,4.643-1.649,10.832,2.994,13.822      c18.962,12.21,40.565,19.399,63.004,21.05V500c0,5.522,4.477,10,10,10s10-4.478,10-10V279.637      C259.726,274.566,315,216.44,315,145v-2.32c0-5.523-4.478-10-10-10s-10,4.477-10,10c-0.042,0.1-0.361,107.93-105,116.885      c0-5.514,0-111.862,0-120.198c21.044-39.881,60.484-65.623,105-68.99v32.303C295,108.203,299.478,112.68,305,112.68z"/></g><path style="fill:#DA5461;" d="M350,280c-78.535,0-145.472,50.562-170,120.838C155.472,330.562,88.535,280,10,280     c-5.523,0-10,4.478-10,10c0,99.252,80.748,180,180,180s180-80.748,180-180C360,284.478,355.522,280,350,280z M20.33,300.33     c80.019,5.12,144.22,69.321,149.34,149.34C89.651,444.55,25.45,380.349,20.33,300.33z M190.33,449.67     c5.12-80.018,69.321-144.22,149.34-149.34C334.55,380.349,270.349,444.55,190.33,449.67z"/></g></g></g><g id="Layer_1"/></svg>